<?xml version="1.0" encoding="UTF-8" standalone="no"?>
<svg
   xmlns:dc="http://purl.org/dc/elements/1.1/"
   xmlns:cc="http://creativecommons.org/ns#"
   xmlns:rdf="http://www.w3.org/1999/02/22-rdf-syntax-ns#"
   xmlns:svg="http://www.w3.org/2000/svg"
   xmlns="http://www.w3.org/2000/svg"
   xmlns:sodipodi="http://sodipodi.sourceforge.net/DTD/sodipodi-0.dtd"
   xmlns:inkscape="http://www.inkscape.org/namespaces/inkscape"
   version="1.1"
   id="Layer_1_1_"
   x="0px"
   y="0px"
   height="20"
   width="20"
   viewBox="0 0 16 16"
   style="enable-background:new 0 0 16 16;"
   xml:space="preserve"
   sodipodi:docname="disconnect.svg"
   inkscape:version="1.0.2 (e86c870879, 2021-01-15)"><metadata
   id="metadata106"><rdf:RDF><cc:Work
       rdf:about=""><dc:format>image/svg+xml</dc:format><dc:type
         rdf:resource="http://purl.org/dc/dcmitype/StillImage" /></cc:Work></rdf:RDF></metadata><defs
   id="defs104" /><sodipodi:namedview
   pagecolor="#000000"
   bordercolor="#666666"
   borderopacity="1"
   objecttolerance="10"
   gridtolerance="10"
   guidetolerance="10"
   inkscape:pageopacity="0"
   inkscape:pageshadow="2"
   inkscape:window-width="1920"
   inkscape:window-height="1030"
   id="namedview102"
   showgrid="true"
   inkscape:zoom="9.5238445"
   inkscape:cx="17.600814"
   inkscape:cy="8.5802332"
   inkscape:window-x="0"
   inkscape:window-y="27"
   inkscape:window-maximized="1"
   inkscape:current-layer="Layer_1_1_"
   inkscape:document-rotation="0"><inkscape:grid
     type="xygrid"
     id="grid67" /></sodipodi:namedview>
<path
   style="stroke:#ffffff"
   d="M3.5,9h9C14.43,9,16,7.43,16,5.5S14.43,2,12.5,2H4c0-1.105-0.895-2-2-2S0,0.895,0,2c0,1.105,0.895,2,2,2  c0.738,0,1.376-0.405,1.723-1H12.5C13.878,3,15,4.122,15,5.5S13.878,8,12.5,8h-9C1.57,8,0,9.57,0,11.5S1.57,15,3.5,15h8.777  c0.346,0.595,0.984,1,1.723,1c1.105,0,2-0.895,2-2c0-1.105-0.895-2-2-2s-2,0.895-2,2H3.5C2.122,14,1,12.878,1,11.5S2.122,9,3.5,9z"
   id="path99" />
<path
   style="fill:none;stroke:#ffffff;stroke-width:1px;stroke-linecap:butt;stroke-linejoin:miter;stroke-opacity:1"
   d="m 4.194896,5.1229699 7.832946,6.3480281"
   id="path114" /><path
   style="fill:none;stroke:#ffffff;stroke-width:1px;stroke-linecap:butt;stroke-linejoin:miter;stroke-opacity:1"
   d="M 12.046404,5.1415313 4.2134572,11.48956"
   id="path114-3" /></svg>
